<?xml version="1.0" encoding="UTF-8"?>
<svg width="800px" height="800px" viewBox="0 0 800 800" version="1.1" xmlns="http://www.w3.org/2000/svg" xmlns:xlink="http://www.w3.org/1999/xlink">
    <title>Logo Copy 2</title>
    <g id="Logo-Copy-2" stroke="none" stroke-width="1" fill="none" fill-rule="evenodd">
        <rect id="Rectangle" fill="#F9D34A" x="0" y="0" width="800" height="800" rx="120"></rect>
        <path d="M123,284 C129.266667,284 135.133333,282.833333 140.6,280.5 C146.066667,278.166667 150.866667,274.933333 155,270.8 C159.133333,266.666667 162.366667,261.866667 164.7,256.4 C167.033333,250.933333 168.2,245.066667 168.2,238.8 C168.2,234.266667 167.566667,229.933333 166.3,225.8 C165.033333,221.666667 163.233333,217.833333 160.9,214.3 C158.566667,210.766667 155.833333,207.6 152.7,204.8 C149.566667,202 146.066667,199.733333 142.2,198 C143.933333,195.333333 145.3,192.366667 146.3,189.1 C147.3,185.833333 147.8,182.466667 147.8,179 C147.8,174.2 146.9,169.666667 145.1,165.4 C143.3,161.133333 140.8,157.4 137.6,154.2 C134.4,151 130.666667,148.5 126.4,146.7 C122.133333,144.9 117.6,144 112.8,144 L112.8,144 L64,144 L64,284 L123,284 Z M109.8,192.8 L87,192.8 L87,166 L109.8,166 C114.066667,166 117.633333,167.3 120.5,169.9 C123.366667,172.5 124.8,175.666667 124.8,179.4 C124.8,183.133333 123.366667,186.3 120.5,188.9 C117.633333,191.5 114.066667,192.8 109.8,192.8 L109.8,192.8 Z M120,262 L87,262 L87,214.6 L120.2,214.6 C123.666667,214.6 126.9,215.233333 129.9,216.5 C132.9,217.766667 135.533333,219.466667 137.8,221.6 C140.066667,223.733333 141.866667,226.233333 143.2,229.1 C144.533333,231.966667 145.2,235 145.2,238.2 C145.2,241.533333 144.533333,244.633333 143.2,247.5 C141.866667,250.366667 140.066667,252.866667 137.8,255 C135.533333,257.133333 132.866667,258.833333 129.8,260.1 C126.733333,261.366667 123.466667,262 120,262 L120,262 Z M230.4,286.6 C236.8,286.6 242.733333,285.666667 248.2,283.8 C253.666667,281.933333 258.733333,278.8 263.4,274.4 L263.4,274.4 L263.4,284 L285.2,284 L285.2,234.6 C285.2,227.4 283.833333,220.666667 281.1,214.4 C278.366667,208.133333 274.633333,202.733333 269.9,198.2 C265.166667,193.666667 259.633333,190.1 253.3,187.5 C246.966667,184.9 240.133333,183.6 232.8,183.6 C225.466667,183.6 218.633333,184.933333 212.3,187.6 C205.966667,190.266667 200.5,193.933333 195.9,198.6 C191.3,203.266667 187.7,208.733333 185.1,215 C182.5,221.266667 181.2,228.066667 181.2,235.4 C181.2,242.6 182.4,249.3 184.8,255.5 C187.2,261.7 190.566667,267.1 194.9,271.7 C199.233333,276.3 204.4,279.933333 210.4,282.6 C216.4,285.266667 223.066667,286.6 230.4,286.6 Z M233,265.2 C228.866667,265.2 224.966667,264.433333 221.3,262.9 C217.633333,261.366667 214.466667,259.266667 211.8,256.6 C209.133333,253.933333 207.033333,250.766667 205.5,247.1 C203.966667,243.433333 203.2,239.533333 203.2,235.4 C203.2,231.133333 203.966667,227.166667 205.5,223.5 C207.033333,219.833333 209.133333,216.633333 211.8,213.9 C214.466667,211.166667 217.6,209 221.2,207.4 C224.8,205.8 228.733333,205 233,205 C237.4,205 241.433333,205.766667 245.1,207.3 C248.766667,208.833333 251.933333,210.966667 254.6,213.7 C257.266667,216.433333 259.333333,219.666667 260.8,223.4 C262.266667,227.133333 263,231.133333 263,235.4 C263,239.666667 262.233333,243.6 260.7,247.2 C259.166667,250.8 257.066667,253.933333 254.4,256.6 C251.733333,259.266667 248.566667,261.366667 244.9,262.9 C241.233333,264.433333 237.266667,265.2 233,265.2 Z M326.2,284 L326.2,235 C326.2,230.866667 326.666667,226.966667 327.6,223.3 C328.533333,219.633333 330,216.466667 332,213.8 C334,211.133333 336.633333,209 339.9,207.4 C343.166667,205.8 347.133333,205 351.8,205 C356.466667,205 360.433333,205.766667 363.7,207.3 C366.966667,208.833333 369.633333,210.966667 371.7,213.7 C373.766667,216.433333 375.266667,219.6 376.2,223.2 C377.133333,226.8 377.6,230.733333 377.6,235 L377.6,235 L377.6,284 L399.6,284 L399.6,233.8 C399.6,227.533333 398.933333,221.533333 397.6,215.8 C396.533333,210.733333 394.6,206.2 391.8,202.2 C389,198.2 385.666667,194.833333 381.8,192.1 C377.933333,189.366667 373.633333,187.266667 368.9,185.8 C364.166667,184.333333 359.266667,183.6 354.2,183.6 C349.133333,183.6 344.166667,184.4 339.3,186 C334.433333,187.6 330.066667,190.066667 326.2,193.4 L326.2,193.4 L326.2,144.2 L304.2,144.2 L304.2,284 L326.2,284 Z M439.6,284 L439.6,235 C439.6,225.8 442.333333,218.966667 447.8,214.5 C453.266667,210.033333 460.4,207.8 469.2,207.8 L469.2,207.8 L469.2,186.4 C461.466667,186.4 454.433333,187.433333 448.1,189.5 C441.766667,191.566667 436.333333,194.666667 431.8,198.8 C427.266667,202.933333 423.766667,208.066667 421.3,214.2 C418.833333,220.333333 417.6,227.4 417.6,235.4 L417.6,235.4 L417.6,284 L439.6,284 Z M529.4,286.6 C535.8,286.6 541.733333,285.666667 547.2,283.8 C552.666667,281.933333 557.733333,278.8 562.4,274.4 L562.4,274.4 L562.4,284 L584.2,284 L584.2,234.6 C584.2,227.4 582.833333,220.666667 580.1,214.4 C577.366667,208.133333 573.633333,202.733333 568.9,198.2 C564.166667,193.666667 558.633333,190.1 552.3,187.5 C545.966667,184.9 539.133333,183.6 531.8,183.6 C524.466667,183.6 517.633333,184.933333 511.3,187.6 C504.966667,190.266667 499.5,193.933333 494.9,198.6 C490.3,203.266667 486.7,208.733333 484.1,215 C481.5,221.266667 480.2,228.066667 480.2,235.4 C480.2,242.6 481.4,249.3 483.8,255.5 C486.2,261.7 489.566667,267.1 493.9,271.7 C498.233333,276.3 503.4,279.933333 509.4,282.6 C515.4,285.266667 522.066667,286.6 529.4,286.6 Z M532,265.2 C527.866667,265.2 523.966667,264.433333 520.3,262.9 C516.633333,261.366667 513.466667,259.266667 510.8,256.6 C508.133333,253.933333 506.033333,250.766667 504.5,247.1 C502.966667,243.433333 502.2,239.533333 502.2,235.4 C502.2,231.133333 502.966667,227.166667 504.5,223.5 C506.033333,219.833333 508.133333,216.633333 510.8,213.9 C513.466667,211.166667 516.6,209 520.2,207.4 C523.8,205.8 527.733333,205 532,205 C536.4,205 540.433333,205.766667 544.1,207.3 C547.766667,208.833333 550.933333,210.966667 553.6,213.7 C556.266667,216.433333 558.333333,219.666667 559.8,223.4 C561.266667,227.133333 562,231.133333 562,235.4 C562,239.666667 561.233333,243.6 559.7,247.2 C558.166667,250.8 556.066667,253.933333 553.4,256.6 C550.733333,259.266667 547.566667,261.366667 543.9,262.9 C540.233333,264.433333 536.266667,265.2 532,265.2 Z M613.2,174.8 C617.066667,174.8 620.3,173.5 622.9,170.9 C625.5,168.3 626.8,165.066667 626.8,161.2 C626.8,157.333333 625.5,154.1 622.9,151.5 C620.3,148.9 617.066667,147.6 613.2,147.6 C609.333333,147.6 606.133333,148.9 603.6,151.5 C601.066667,154.1 599.8,157.333333 599.8,161.2 C599.8,165.066667 601.066667,168.3 603.6,170.9 C606.133333,173.5 609.333333,174.8 613.2,174.8 Z M624.2,284 L624.2,186.6 L602.2,186.6 L602.2,284 L624.2,284 Z M664.4,284 L664.4,234.8 C664.4,230.533333 664.866667,226.6 665.8,223 C666.733333,219.4 668.2,216.266667 670.2,213.6 C672.2,210.933333 674.833333,208.833333 678.1,207.3 C681.366667,205.766667 685.333333,205 690,205 C694.666667,205 698.633333,205.766667 701.9,207.3 C705.166667,208.833333 707.8,210.933333 709.8,213.6 C711.8,216.266667 713.266667,219.4 714.2,223 C715.133333,226.6 715.6,230.533333 715.6,234.8 L715.6,234.8 L715.6,284 L737.6,284 L737.6,231 C737.6,224.466667 736.466667,218.333333 734.2,212.6 C731.933333,206.866667 728.7,201.833333 724.5,197.5 C720.3,193.166667 715.3,189.766667 709.5,187.3 C703.7,184.833333 697.2,183.6 690,183.6 C682.8,183.6 676.3,184.833333 670.5,187.3 C664.7,189.766667 659.7,193.166667 655.5,197.5 C651.3,201.833333 648.066667,206.866667 645.8,212.6 C643.533333,218.333333 642.4,224.466667 642.4,231 L642.4,231 L642.4,284 L664.4,284 Z" id="Bahrain" fill="#323330" fill-rule="nonzero"></path>
        <path d="M359,700 C376.6,700 392.6,697.333333 407,692 C421.4,686.666667 433.666667,679 443.8,669 C453.933333,659 461.733333,646.933333 467.2,632.8 C472.666667,618.666667 475.4,602.666667 475.4,584.8 L475.4,584.8 L475.4,420 L429.4,420 L429.4,582.8 C429.4,605.2 423.333333,622.933333 411.2,636 C399.066667,649.066667 381.666667,655.6 359,655.6 L359,655.6 L359,700 Z M625.8,706.4 C641.8,706.4 656.533333,704.333333 670,700.2 C683.466667,696.066667 695.066667,690.2 704.8,682.6 C714.533333,675 722.2,665.8 727.8,655 C733.4,644.2 736.2,632.266667 736.2,619.2 C736.2,604.8 733.066667,592.8 726.8,583.2 C720.533333,573.6 712.4,565.6 702.4,559.2 C692.4,552.8 681.266667,547.6 669,543.6 C656.733333,539.6 644.733333,536 633,532.8 C624.2,530.4 615.933333,528 608.2,525.6 C600.466667,523.2 593.6,520.466667 587.6,517.4 C581.6,514.333333 576.866667,510.866667 573.4,507 C569.933333,503.133333 568.2,498.4 568.2,492.8 C568.2,483.2 573.266667,475.066667 583.4,468.4 C593.533333,461.733333 607.133333,458.4 624.2,458.4 C639.666667,458.4 653.733333,461.333333 666.4,467.2 C679.066667,473.066667 689.533333,481.466667 697.8,492.4 L697.8,492.4 L733.4,462.4 C721.4,447.2 706,435.266667 687.2,426.6 C668.4,417.933333 647.666667,413.6 625,413.6 C609.533333,413.6 595.4,415.666667 582.6,419.8 C569.8,423.933333 558.733333,429.666667 549.4,437 C540.066667,444.333333 532.8,453.133333 527.6,463.4 C522.4,473.666667 519.8,484.933333 519.8,497.2 C519.8,510.8 522.866667,522.133333 529,531.2 C535.133333,540.266667 543,547.866667 552.6,554 C562.2,560.133333 572.933333,565.2 584.8,569.2 C596.666667,573.2 608.333333,576.8 619.8,580 C628.866667,582.666667 637.466667,585.266667 645.6,587.8 C653.733333,590.333333 660.933333,593.266667 667.2,596.6 C673.466667,599.933333 678.466667,603.8 682.2,608.2 C685.933333,612.6 687.8,617.866667 687.8,624 C687.8,634.933333 682.266667,643.933333 671.2,651 C660.133333,658.066667 645.4,661.6 627,661.6 C609.133333,661.6 593.333333,658 579.6,650.8 C565.866667,643.6 554.6,633.6 545.8,620.8 L545.8,620.8 L510.2,650.8 C522.733333,668.4 538.866667,682.066667 558.6,691.8 C578.333333,701.533333 600.733333,706.4 625.8,706.4 Z" id="JS" fill="#323330" fill-rule="nonzero"></path>
    </g>
</svg>