<?xml version="1.0" encoding="UTF-8"?>
<svg width="800px" height="800px" viewBox="0 0 800 800" version="1.1" xmlns="http://www.w3.org/2000/svg" xmlns:xlink="http://www.w3.org/1999/xlink">
    <title>Logo</title>
    <g id="Logo" stroke="none" stroke-width="1" fill="none" fill-rule="evenodd">
        <rect fill="#EFDB50" x="0" y="0" width="800" height="800"></rect>
        <path d="M160.812,259 C192.336,259 211.428,239.242 211.428,212.38 C211.428,193.51 201.438,179.746 180.792,174.862 C193.89,170.644 202.104,161.098 202.104,147.112 C202.104,125.8 186.342,108.04 158.148,108.04 L99.762,108.04 L99.762,259 L160.812,259 Z M154.818,163.762 L130.842,163.762 L130.842,135.346 L156.372,135.346 C165.918,135.346 171.468,140.896 171.468,149.554 C171.468,158.212 164.808,163.762 154.818,163.762 Z M159.48,231.694 L130.842,231.694 L130.842,190.18 L157.704,190.18 C171.912,190.18 180.126,198.616 180.126,210.826 C180.126,223.258 172.134,231.694 159.48,231.694 Z M243.098244,260.998 C255.752244,260.998 263.966244,256.78 271.070244,245.902 L270.404244,259 L300.152244,259 L300.152244,205.276 C300.152244,175.528 281.726244,162.43 257.528244,162.43 C235.328244,162.43 225.338244,169.312 216.458244,177.97 L233.108244,195.73 C237.326244,191.956 243.320244,187.072 254.642244,187.072 C264.632244,187.072 269.960244,191.956 270.404244,202.834 L248.426244,202.834 C225.116244,202.834 209.798244,211.048 209.798244,231.25 C209.798244,253.228 225.782244,260.998 243.098244,260.998 Z M251.978244,237.688 C243.542244,237.688 239.102244,234.58 239.102244,229.252 C239.102244,223.924 242.432244,220.594 249.980244,220.594 L270.404244,220.594 L270.404244,224.368 C270.404244,232.36 264.188244,237.688 251.978244,237.688 Z M336.484487,259 L336.484487,208.384 C336.484487,196.396 343.588487,189.736 355.576487,189.736 C366.232487,189.736 371.338487,195.73 371.338487,206.386 L371.338487,259 L401.308487,259 L401.308487,204.388 C401.308487,177.526 386.434487,162.43 365.788487,162.43 C352.690487,162.43 342.256487,168.424 336.484487,179.302 L336.484487,98.716 L306.514487,98.716 L306.514487,259 L336.484487,259 Z M437.640731,259 L437.640731,217.042 C437.640731,196.84 444.966731,190.624 458.508731,190.624 C462.726731,190.624 466.278731,191.734 470.052731,193.51 L479.598731,166.204 C475.824731,164.206 471.162731,162.43 464.946731,162.43 C455.178731,162.43 444.078731,165.982 437.196731,181.522 L437.640731,164.428 L407.670731,164.428 L407.670731,259 L437.640731,259 Z M502.166975,260.998 C514.820975,260.998 523.034975,256.78 530.138975,245.902 L529.472975,259 L559.220975,259 L559.220975,205.276 C559.220975,175.528 540.794975,162.43 516.596975,162.43 C494.396975,162.43 484.406975,169.312 475.526975,177.97 L492.176975,195.73 C496.394975,191.956 502.388975,187.072 513.710975,187.072 C523.700975,187.072 529.028975,191.956 529.472975,202.834 L507.494975,202.834 C484.184975,202.834 468.866975,211.048 468.866975,231.25 C468.866975,253.228 484.850975,260.998 502.166975,260.998 Z M511.046975,237.688 C502.610975,237.688 498.170975,234.58 498.170975,229.252 C498.170975,223.924 501.500975,220.594 509.048975,220.594 L529.472975,220.594 L529.472975,224.368 C529.472975,232.36 523.256975,237.688 511.046975,237.688 Z M581.789218,148.666 C592.001218,148.666 600.659218,140.896 600.659218,129.796 C600.659218,118.918 592.001218,111.148 581.789218,111.148 C571.577218,111.148 562.697218,118.918 562.697218,129.796 C562.697218,140.896 571.577218,148.666 581.789218,148.666 Z M596.663218,259 L596.663218,164.428 L566.693218,164.428 L566.693218,259 L596.663218,259 Z M634.771462,259 L634.771462,208.384 C634.771462,196.396 641.875462,189.736 653.863462,189.736 C664.519462,189.736 669.625462,195.73 669.625462,206.386 L669.625462,259 L699.595462,259 L699.595462,204.388 C699.595462,177.526 684.721462,162.43 664.075462,162.43 C650.977462,162.43 639.877462,168.646 634.105462,179.968 L634.771462,164.428 L604.801462,164.428 L604.801462,259 L634.771462,259 Z" id="Bahrain" fill="#323330" fill-rule="nonzero"></path>
        <path d="M313.5,704.5 C375.5,704.5 418,671.5 418,599 L418,360 L348,360 L348,598 C348,633 333.5,642 310.5,642 C286.5,642 276.5,625.5 265.5,606 L208.5,640.5 C225,675.5 257.5,704.5 313.5,704.5 Z M583.5,704.5 C650,704.5 699.5,670 699.5,607 C699.5,548.5 666,522.5 606.5,497 L589,489.5 C559,476.5 546,468 546,447 C546,430 559,417 579.5,417 C599.5,417 612.5,425.5 624.5,447 L679,412 C656,371.5 624,356 579.5,356 C517,356 477,396 477,448.5 C477,505.5 510.5,532.5 561,554 L578.5,561.5 C610.5,575.5 629.5,584 629.5,608 C629.5,628 611,642.5 582,642.5 C547.5,642.5 528,624.5 513,600 L456,633 C476.5,673.5 518.5,704.5 583.5,704.5 Z" id="JS" fill="#323330" fill-rule="nonzero"></path>
    </g>
</svg>